<svg width="12" height="12" viewBox="0 0 12 12" fill="none" xmlns="http://www.w3.org/2000/svg">
<path d="M11.5 7C11.5 7.26522 11.3946 7.51957 11.2071 7.70711C11.0196 7.89464 10.7652 8 10.5 8H7.34L7.82 10.285C7.83 10.335 7.835 10.39 7.835 10.445C7.835 10.65 7.75 10.84 7.615 10.975L7.085 11.5L3.795 8.21C3.61 8.025 3.5 7.775 3.5 7.5V2.5C3.5 2.23478 3.60536 1.98043 3.79289 1.79289C3.98043 1.60536 4.23478 1.5 4.5 1.5H9C9.415 1.5 9.77 1.75 9.92 2.11L11.43 5.635C11.475 5.75 11.5 5.87 11.5 6V7ZM0.5 1.5H2.5V7.5H0.5V1.5Z" fill="white"/>
</svg>
